<svg width="120" height="23" viewBox="0 0 120 23" fill="none" xmlns="http://www.w3.org/2000/svg">
<rect width="120" height="23" rx="5" fill="#D9D9D9"/>
<path d="M13.225 10.2L8.329 11.628L13.225 13.073V14.705L6.476 12.529V10.693L13.225 8.568V10.2ZM18.4461 5.1H20.1631L15.3521 18.751H13.6351L18.4461 5.1ZM25.8154 11.628L20.9194 10.2V8.568L27.6684 10.693V12.529L20.9194 14.705V13.073L25.8154 11.628ZM33.3655 17L32.9575 14.773H30.6115L30.2375 17H28.2825L30.4415 6.273H33.0765L35.3375 17H33.3655ZM30.8665 13.294H32.6855L31.7505 8.16L30.8665 13.294ZM39.3098 8.653H39.8198C40.9871 8.653 41.5708 9.214 41.5708 10.336V17H39.6328V10.608C39.6328 10.4267 39.5988 10.3077 39.5308 10.251C39.4628 10.183 39.3381 10.149 39.1568 10.149H38.6468C38.2954 10.149 38.1198 10.336 38.1198 10.71V17H36.1988V8.653H38.1028V9.418C38.2614 8.908 38.6638 8.653 39.3098 8.653ZM46.2358 10.149H45.0968V14.994C45.0968 15.1753 45.1308 15.3 45.1988 15.368C45.2668 15.4247 45.3971 15.453 45.5898 15.453H46.2188V17H45.0288C43.7935 17 43.1758 16.439 43.1758 15.317V10.149H42.3428V8.653H43.1758V7.157H45.0968V8.653H46.2358V10.149ZM48.8732 8.653H50.7942C51.9955 8.653 52.5962 9.214 52.5962 10.336V15.317C52.5962 16.439 51.9955 17 50.7942 17H48.8732C47.6605 17 47.0542 16.439 47.0542 15.317V10.336C47.0542 9.214 47.6605 8.653 48.8732 8.653ZM50.7092 15.096V10.557C50.7092 10.3757 50.6752 10.2567 50.6072 10.2C50.5392 10.132 50.4089 10.098 50.2162 10.098H49.4342C49.2415 10.098 49.1112 10.132 49.0432 10.2C48.9752 10.2567 48.9412 10.3757 48.9412 10.557V15.096C48.9412 15.2773 48.9752 15.402 49.0432 15.47C49.1112 15.5267 49.2415 15.555 49.4342 15.555H50.2162C50.4089 15.555 50.5392 15.5267 50.6072 15.47C50.6752 15.402 50.7092 15.2773 50.7092 15.096ZM57.09 8.653H57.6C58.7674 8.653 59.351 9.214 59.351 10.336V17H57.413V10.608C57.413 10.4267 57.379 10.3077 57.311 10.251C57.243 10.183 57.1184 10.149 56.937 10.149H56.427C56.0757 10.149 55.9 10.336 55.9 10.71V17H53.979V8.653H55.883V9.418C56.0417 8.908 56.444 8.653 57.09 8.653ZM63.6783 6.273H67.7583C68.9937 6.273 69.6113 6.834 69.6113 7.956V15.317C69.6113 16.439 68.9937 17 67.7583 17H63.6783V6.273ZM67.6393 15.113V8.16C67.6393 7.97867 67.6053 7.85967 67.5373 7.803C67.4693 7.735 67.3447 7.701 67.1633 7.701H65.6333V15.572H67.1633C67.3447 15.572 67.4693 15.5437 67.5373 15.487C67.6053 15.419 67.6393 15.2943 67.6393 15.113ZM72.8633 8.653H74.6653C75.8893 8.653 76.5013 9.214 76.5013 10.336V13.379H72.8803V15.096C72.8803 15.2773 72.9086 15.402 72.9653 15.47C73.0333 15.5267 73.1636 15.555 73.3563 15.555H74.1383C74.3196 15.555 74.4443 15.5267 74.5123 15.47C74.5803 15.402 74.6143 15.2773 74.6143 15.096V14.467H76.4843V15.317C76.4843 16.439 75.8666 17 74.6313 17H72.8633C71.6279 17 71.0103 16.439 71.0103 15.317V10.336C71.0103 9.214 71.6279 8.653 72.8633 8.653ZM72.8803 12.138H74.6483V10.54C74.6483 10.3587 74.6143 10.2397 74.5463 10.183C74.4783 10.115 74.3536 10.081 74.1723 10.081H73.3563C73.1749 10.081 73.0503 10.115 72.9823 10.183C72.9143 10.2397 72.8803 10.3587 72.8803 10.54V12.138ZM84.2975 8.653H84.8245C85.9805 8.653 86.5585 9.214 86.5585 10.336V17H84.6375V10.608C84.6375 10.4267 84.6035 10.3077 84.5355 10.251C84.4675 10.183 84.3428 10.149 84.1615 10.149H83.6515C83.3002 10.149 83.1245 10.336 83.1245 10.71V17H81.1865V10.608C81.1865 10.4267 81.1525 10.3077 81.0845 10.251C81.0165 10.183 80.8918 10.149 80.7105 10.149H80.2005C79.8492 10.149 79.6735 10.336 79.6735 10.71V17H77.7525V8.653H79.6565V9.418C79.8152 8.908 80.2175 8.653 80.8635 8.653H81.3735C82.2122 8.653 82.7448 8.93633 82.9715 9.503C83.1302 8.93633 83.5722 8.653 84.2975 8.653ZM93.1822 11.458H91.2952V10.608C91.2952 10.4267 91.2612 10.3077 91.1932 10.251C91.1252 10.183 91.0006 10.149 90.8192 10.149H90.2072C90.0259 10.149 89.9012 10.183 89.8332 10.251C89.7652 10.3077 89.7312 10.4267 89.7312 10.608V15.045C89.7312 15.2263 89.7652 15.351 89.8332 15.419C89.9012 15.4757 90.0259 15.504 90.2072 15.504H90.8192C91.0006 15.504 91.1252 15.4757 91.1932 15.419C91.2612 15.351 91.2952 15.2263 91.2952 15.045V14.178H93.1822V15.317C93.1822 16.439 92.5646 17 91.3292 17H89.6632C88.4279 17 87.8102 16.439 87.8102 15.317V10.336C87.8102 9.214 88.4279 8.653 89.6632 8.653H91.3292C92.5646 8.653 93.1822 9.214 93.1822 10.336V11.458ZM97.4983 8.653H98.0083C99.1756 8.653 99.7593 9.214 99.7593 10.336V17H97.8213V10.608C97.8213 10.4267 97.7873 10.3077 97.7193 10.251C97.6513 10.183 97.5266 10.149 97.3453 10.149H96.8353C96.4839 10.149 96.3083 10.336 96.3083 10.71V17H94.3873V5.627H96.3083V9.367C96.4783 8.891 96.8749 8.653 97.4983 8.653ZM104.577 8.653H106.515V17H104.611V16.167C104.475 16.7223 104.073 17 103.404 17H102.877C101.721 17 101.143 16.439 101.143 15.317V8.653H103.064V15.045C103.064 15.2263 103.098 15.351 103.166 15.419C103.234 15.4757 103.359 15.504 103.54 15.504H104.05C104.402 15.504 104.577 15.317 104.577 14.943V8.653ZM113.866 8.653L111.996 12.665L113.866 17H111.843L110.041 12.665L111.86 8.653H113.866ZM107.967 17V5.627H109.888V17H107.967Z" fill="#030303"/>
</svg>
